<svg xmlns="http://www.w3.org/2000/svg" version="1.1" xmlns:xlink="http://www.w3.org/1999/xlink" viewBox="0 0 200 200" width="200" height="200"><metadata><rdf:RDF xmlns:rdf="http://www.w3.org/1999/02/22-rdf-syntax-ns#" xmlns:dc="http://purl.org/dc/elements/1.1/"><rdf:Description><dc:creator>RealFaviconGenerator</dc:creator><dc:source>https://realfavicongenerator.net</dc:source></rdf:Description></rdf:RDF></metadata><rect width="200" height="200" fill="url('#gradient')"></rect><defs><linearGradient id="gradient" gradientTransform="rotate(45 0.5 0.5)"><stop offset="0%" stop-color="#098d2b"></stop><stop offset="100%" stop-color="#0e4502"></stop></linearGradient></defs><g><g fill="#ffffff" transform="matrix(4.294501397949674,0,0,4.294501397949674,9.109768761254202,130.5168059243294)" stroke="#071029" stroke-width="0.1"><path d="M10.11-14.22L12.09-5.30L13.72-14.22L17.12-14.22L14.10 0L10.55 0L8.64-8.11L6.78 0L3.23 0L0.21-14.22L3.61-14.22L5.24-5.30L7.20-14.22L10.11-14.22ZM24.23 0L18.46 0L18.46-14.22L23.56-14.22Q26.31-14.22 27.74-13.21Q29.17-12.21 29.17-10.29L29.17-10.29Q29.17-9.19 28.66-8.41Q28.15-7.63 27.17-7.26L27.17-7.26Q28.28-6.96 28.88-6.16Q29.47-5.36 29.47-4.21L29.47-4.21Q29.47-2.12 28.15-1.07Q26.83-0.02 24.23 0L24.23 0ZM24.29-6.04L21.88-6.04L21.88-2.64L24.13-2.64Q25.06-2.64 25.56-3.06Q26.05-3.49 26.05-4.26L26.05-4.26Q26.05-6.04 24.29-6.04L24.29-6.04ZM21.88-11.57L21.88-8.29L23.67-8.29Q24.79-8.30 25.27-8.70Q25.75-9.10 25.75-9.88L25.75-9.88Q25.75-10.78 25.23-11.18Q24.72-11.57 23.56-11.57L23.56-11.57L21.88-11.57ZM38.69-3.78L38.69-3.78Q38.69-4.53 38.16-4.95Q37.63-5.37 36.29-5.82Q34.95-6.27 34.10-6.69L34.10-6.69Q31.34-8.05 31.34-10.42L31.34-10.42Q31.34-11.60 32.03-12.50Q32.71-13.41 33.97-13.91Q35.23-14.41 36.81-14.41L36.81-14.41Q38.34-14.41 39.56-13.87Q40.77-13.32 41.45-12.31Q42.12-11.30 42.12-10L42.12-10L38.70-10Q38.70-10.87 38.17-11.35Q37.64-11.83 36.73-11.83L36.73-11.83Q35.81-11.83 35.28-11.42Q34.75-11.02 34.75-10.39L34.75-10.39Q34.75-9.84 35.33-9.40Q35.92-8.96 37.39-8.48Q38.87-8.01 39.81-7.46L39.81-7.46Q42.12-6.13 42.12-3.80L42.12-3.80Q42.12-1.93 40.71-0.87Q39.31 0.20 36.86 0.20L36.86 0.20Q35.13 0.20 33.73-0.42Q32.32-1.04 31.62-2.12Q30.91-3.20 30.91-4.61L30.91-4.61L34.35-4.61Q34.35-3.47 34.94-2.92Q35.53-2.38 36.86-2.38L36.86-2.38Q37.71-2.38 38.20-2.75Q38.69-3.12 38.69-3.78Z"></path></g></g></svg>